<svg width="133" height="49" viewBox="0 0 133 49" fill="none" xmlns="http://www.w3.org/2000/svg">
<g clip-path="url(#clip0_3296_4158)">
<path d="M35.168 7.79378V0.5H0.72622V21.0741H0.732535L0 48.5H6.68123L7.06644 32.8515L14.8023 48.5H19.8353L27.4953 33.022L28.0447 48.5H34.4291L33.3746 18.4724H27.5774L17.0441 39.8296L7.66004 20.6447V7.79378H35.168Z" stroke="#3DCFB6"/>
</g>
<path d="M43.2227 23.5238V1.43335H48.2905V19.0713H57.838L57.5303 23.5238H43.2227Z" stroke="white"/>
<path d="M64.5747 23.8245C62.7466 23.8245 61.3711 23.2 60.4389 21.9602C59.5068 20.7204 59.0453 18.9828 59.0724 16.7657L59.1358 7.6797H63.8959L63.8326 16.3856C63.8326 17.3177 63.9955 18.0598 64.3303 18.5937C64.6652 19.1367 65.181 19.3991 65.8869 19.3991C66.4842 19.3991 67.0362 19.2091 67.5339 18.8381C68.0317 18.467 68.4661 17.8426 68.8371 16.9738C69.2081 16.105 69.5068 14.9105 69.724 13.3991C69.9412 11.8878 70.0588 9.97834 70.086 7.67065H74.6923V23.5077H69.9321L70.1493 20.458C69.5249 21.5349 68.7376 22.3675 67.7873 22.9466C66.8371 23.5258 65.7692 23.8154 64.5837 23.8154L64.5747 23.8245Z" stroke="white"/>
<path d="M78.3569 23.5226V0.5H83.1171V14.0022L88.9994 7.6855H94.6646L87.5062 15.3416C87.9859 15.6312 88.375 16.0113 88.6918 16.4909L89.9044 18.3914C90.5469 19.3868 91.4519 19.8846 92.6103 19.8846C93.2347 19.8846 93.823 19.7307 94.384 19.414L95.4067 22.9253C94.8275 23.2601 94.2302 23.4954 93.6148 23.6402C92.9994 23.785 92.3569 23.8484 91.6691 23.8303C90.3207 23.8122 89.2076 23.5588 88.3207 23.0791C87.4429 22.5995 86.6465 21.7941 85.9406 20.6538L84.728 18.7534C84.4384 18.3009 84.1669 17.9208 83.9225 17.6312C83.6782 17.3416 83.4067 17.1153 83.1171 16.9434V23.5045H78.3569V23.5226Z" stroke="white"/>
<path d="M111.122 7.74788V23.5216H106.335L106.489 21.1596C105.348 22.9424 103.656 23.8383 101.421 23.8383C100.009 23.8383 98.8055 23.5216 97.81 22.87C96.8145 22.2275 96.0544 21.3316 95.5385 20.1913C95.0227 19.051 94.7603 17.7479 94.7603 16.2727C94.7603 14.508 95.1222 12.9605 95.8462 11.6393C96.5702 10.309 97.5476 9.27729 98.7693 8.54426C99.991 7.81123 101.358 7.44019 102.878 7.44019C103.873 7.44019 104.751 7.63928 105.52 8.04652C106.29 8.45376 106.878 8.98769 107.294 9.64833L107.701 7.74788H111.122ZM103.348 11.5759C102.208 11.5759 101.312 12.0013 100.661 12.8519C100.009 13.7026 99.6833 14.7886 99.6833 16.1189C99.6833 17.2592 99.9367 18.137 100.443 18.7614C100.95 19.3859 101.638 19.6936 102.516 19.6936C103.575 19.6936 104.48 19.2592 105.24 18.3904C106 17.5216 106.371 16.3813 106.371 14.9696C106.371 13.9108 106.1 13.0872 105.566 12.4809C105.023 11.8836 104.29 11.5759 103.358 11.5759H103.348Z" stroke="white"/>
<path d="M120.599 23.8305C118.3 23.8305 116.554 23.3961 115.377 22.5364C114.192 21.6767 113.504 20.5364 113.296 19.1337L117.251 18.1382C117.377 18.7446 117.721 19.2242 118.273 19.5862C118.834 19.9482 119.604 20.1292 120.572 20.1292C122.128 20.1292 122.907 19.7672 122.907 19.0432C122.907 18.6722 122.68 18.3826 122.237 18.1835C121.794 17.9844 121.07 17.7943 120.074 17.6043C118.21 17.2695 116.762 16.7446 115.73 16.0206C114.699 15.2966 114.192 14.1835 114.192 12.6903C114.192 11.6767 114.481 10.7717 115.061 9.9844C115.64 9.19708 116.436 8.57264 117.459 8.12015C118.472 7.66767 119.649 7.43237 120.97 7.43237C122.69 7.43237 124.119 7.83961 125.251 8.64504C126.382 9.45047 127.052 10.4459 127.26 11.6315L123.368 12.6903C123.223 12.2378 122.934 11.8577 122.509 11.5681C122.083 11.2785 121.504 11.1337 120.78 11.1337C120.092 11.1337 119.595 11.2514 119.269 11.4776C118.943 11.7039 118.789 11.9754 118.789 12.283C118.789 12.6541 119.006 12.9527 119.441 13.1699C119.875 13.3871 120.644 13.6134 121.739 13.8396C122.861 14.0477 123.848 14.3283 124.708 14.6993C125.567 15.0613 126.246 15.5591 126.726 16.1925C127.214 16.826 127.459 17.6767 127.459 18.7627C127.459 19.7762 127.16 20.6722 126.572 21.4414C125.984 22.2106 125.169 22.7989 124.128 23.2151C123.088 23.6314 121.911 23.8396 120.581 23.8396L120.599 23.8305Z" stroke="white"/>
<path d="M43.168 48.1952L43.9462 26.1047H48.2087L55.9553 41.8151L63.6385 26.1047H67.901L68.4892 48.1952H63.5752L63.2946 36.6839L57.6023 48.1952H53.901L48.272 36.8106L47.8648 48.1952H43.168Z" stroke="white"/>
<path d="M75.3462 48.4842C73.5181 48.4842 72.1425 47.8598 71.2104 46.62C70.2783 45.3801 69.8168 43.6426 69.8439 41.4254L69.9073 32.3394H74.6674L74.6041 41.0453C74.6041 41.9774 74.767 42.7195 75.1018 43.2535C75.4367 43.7964 75.9525 44.0589 76.6584 44.0589C77.2557 44.0589 77.8077 43.8688 78.3054 43.4978C78.8032 43.1268 79.2376 42.5023 79.6086 41.6335C79.9796 40.7648 80.2783 39.5702 80.4955 38.0589C80.7127 36.5476 80.8303 34.6381 80.8575 32.3304H85.4638V48.1675H80.7036L80.9208 45.1177C80.2964 46.1946 79.509 47.0272 78.5588 47.6064C77.6086 48.1856 76.5407 48.4752 75.3552 48.4752L75.3462 48.4842ZM74.5045 30.5114C73.6086 30.5114 72.9389 30.2399 72.4864 29.706C72.0339 29.163 71.7987 28.5929 71.7987 27.9956C71.7987 27.353 72.0249 26.7738 72.4864 26.258C72.9389 25.7422 73.6177 25.4797 74.5045 25.4797C75.3914 25.4797 76.0158 25.7422 76.4774 26.258C76.948 26.7738 77.1742 27.353 77.1742 27.9956C77.1742 28.6019 76.9389 29.163 76.4774 29.706C76.0068 30.249 75.3552 30.5114 74.5045 30.5114ZM81.1018 30.5114C80.2059 30.5114 79.5271 30.2399 79.0656 29.706C78.595 29.163 78.3688 28.5929 78.3688 27.9956C78.3688 27.353 78.6041 26.7738 79.0656 26.258C79.5362 25.7422 80.2149 25.4797 81.1018 25.4797C81.9887 25.4797 82.6041 25.7422 83.0656 26.258C83.5181 26.7738 83.7534 27.353 83.7534 27.9956C83.7534 28.6019 83.5271 29.163 83.0656 29.706C82.6131 30.249 81.9525 30.5114 81.1018 30.5114Z" stroke="white"/>
<path d="M91.7703 48.4795C90.1685 48.4795 88.9468 48.036 88.0871 47.1582C87.2274 46.2804 86.793 44.9953 86.793 43.312V25.1401H91.5531V42.9682C91.5531 43.9184 91.9966 44.398 92.8925 44.398C93.3721 44.398 93.7703 44.2804 94.1052 44.0541L95.2545 47.4478C94.9016 47.7374 94.4129 47.9817 93.7884 48.1808C93.164 48.3799 92.4943 48.4795 91.7703 48.4795Z" stroke="white"/>
<path d="M100.128 48.4795C98.5264 48.4795 97.3047 48.036 96.445 47.1582C95.5853 46.2804 95.1509 44.9953 95.1509 43.312V25.1401H99.9111V42.9682C99.9111 43.9184 100.354 44.398 101.25 44.398C101.73 44.398 102.128 44.2804 102.463 44.0541L103.612 47.4478C103.259 47.7374 102.771 47.9817 102.146 48.1808C101.522 48.3799 100.852 48.4795 100.128 48.4795Z" stroke="white"/>
<path d="M112.413 48.5017C110.648 48.5017 109.128 48.1759 107.843 47.5243C106.558 46.8727 105.562 45.9496 104.856 44.7551C104.15 43.5605 103.797 42.1487 103.797 40.5107C103.797 38.8727 104.159 37.3886 104.874 36.1216C105.589 34.8546 106.558 33.8682 107.77 33.1623C108.983 32.4565 110.358 32.1035 111.888 32.1035C113.634 32.1035 115.046 32.5017 116.15 33.289C117.245 34.0764 118.015 35.1895 118.44 36.6374C118.865 38.0764 118.956 39.7506 118.702 41.6601H108.657C108.784 42.4474 109.2 43.108 109.906 43.6329C110.612 44.1578 111.571 44.4293 112.802 44.4293C113.363 44.4293 113.951 44.3116 114.576 44.0673C115.2 43.832 115.725 43.47 116.159 42.9904L118.802 45.7867C118.114 46.6193 117.272 47.2709 116.268 47.7596C115.263 48.2483 113.978 48.4926 112.422 48.4926L112.413 48.5017ZM111.978 35.5605C111.146 35.5605 110.449 35.8139 109.879 36.3116C109.309 36.8094 108.929 37.5062 108.748 38.3931H114.693C114.711 37.4157 114.485 36.7008 113.996 36.2483C113.508 35.7958 112.838 35.5605 111.987 35.5605H111.978Z" stroke="white"/>
<path d="M131.315 36.962C130.899 36.7991 130.338 36.7177 129.632 36.7177C128.555 36.7177 127.695 37.0977 127.053 37.8489C126.41 38.6091 125.94 39.8308 125.65 41.5231C125.361 43.2154 125.216 45.4416 125.216 48.1927H120.483V37.9303L120.419 32.3647H125.18L124.962 36.3195C125.524 34.8082 126.275 33.7312 127.216 33.0797C128.157 32.4371 129.171 32.1113 130.247 32.1113C130.6 32.1113 130.926 32.1294 131.225 32.1747C131.523 32.2199 131.831 32.2923 132.139 32.3919L131.297 36.962H131.315Z" stroke="white"/>
<defs>
<clipPath id="clip0_3296_4158">
<rect width="35.168" height="48" fill="white" transform="translate(0 0.5)"/>
</clipPath>
</defs>
</svg>
