<svg width="8" height="13" viewBox="0 0 8 13" fill="none" xmlns="http://www.w3.org/2000/svg">
<path d="M4.18213 0.5C4.18213 0.223858 3.95827 0 3.68213 0C3.40599 0 3.18213 0.223858 3.18213 0.5H4.18213ZM3.32858 12.8536C3.52384 13.0488 3.84042 13.0488 4.03568 12.8536L7.21766 9.67157C7.41293 9.47631 7.41293 9.15973 7.21766 8.96447C7.0224 8.7692 6.70582 8.7692 6.51056 8.96447L3.68213 11.7929L0.853702 8.96447C0.65844 8.7692 0.341857 8.7692 0.146595 8.96447C-0.0486672 9.15973 -0.0486672 9.47631 0.146595 9.67157L3.32858 12.8536ZM3.18213 0.5V12.5H4.18213V0.5H3.18213Z" fill="white"/>
</svg>
