<svg width="56" height="56" viewBox="0 0 56 56" fill="none" xmlns="http://www.w3.org/2000/svg">
<g clip-path="url(#clip0_104769_2351)">
<path d="M7.37333 9.14673V46.9467C2.8 41.9067 0 35.2801 0 28.0001C0 20.7201 2.8 14.0934 7.37333 9.14673Z" fill="white"/>
<path d="M10.3601 13.2534L26.5068 45.6401H10.3601V13.2534Z" fill="white"/>
<path d="M28 42.0001L12.1333 10.3601H43.8666L28 42.0001Z" fill="white"/>
<path d="M28.0001 0C35.2801 0 41.9067 2.8 46.8534 7.37333H9.14673C14.0934 2.8 20.7201 0 28.0001 0Z" fill="white"/>
<path d="M45.6401 45.6401H29.4934L45.6401 13.2534V45.6401Z" fill="white"/>
<path d="M46.8534 48.6267C41.9067 53.2 35.2801 56 28.0001 56C20.7201 56 14.0934 53.2 9.14673 48.6267H46.8534Z" fill="white"/>
<path d="M48.6267 46.8534V9.14673C53.2 14.0934 56 20.7201 56 28.0001C56 35.2801 53.2 41.9067 48.6267 46.8534Z" fill="white"/>
<path d="M10.3601 13.2534L26.5068 45.6401H10.3601V13.2534Z" fill="white"/>
<path d="M28.0002 42.0001L12.1335 10.3601H43.8669L28.0002 42.0001Z" fill="white"/>
<path d="M29.4934 45.6401L45.6401 13.2534V45.6401H29.4934Z" fill="white"/>
<path d="M12.1333 10.3601H43.8666L28 42.0001L12.1333 10.3601Z" fill="white"/>
</g>
<defs>
<clipPath id="clip0_104769_2351">
<rect width="56" height="56" fill="white"/>
</clipPath>
</defs>
</svg>
